# xmcd CD database file
#
# Track frame offsets:
#	150
#	13041
#	28397
#	39936
#	54095
#	65478
#	78368
#	94418
#	106191
#	118053
#	133414
#	148271
#	168790
#	179278
#	194182
#	205449
#	220734
#	231428
#	250247
#	266301
#	278234
#	290906
#	305340
#	323281
#
# Disc length: 4506 seconds
#
# Revision: 0
# Processed by: cddbd v1.5.2PL0 Copyright (c) Steve Scherf et al.
# Submitted via: CDex 1.70beta2
#
DISCID=6c119818
DTITLE=Various Artist - Massive Hits!: Country CD 1/3
DYEAR=2013
DGENRE=Country
TTITLE0=Willie Nelson - Crazy
TTITLE1=Slim Whitman - Can't Help Falling In Love
TTITLE2=Glen Campbell and Bobby Gentry - All I Have To Do Is Dream
TTITLE3=Don Williams - Desperately
TTITLE4=Crystal Gayle - Don't It Make My Brown Eyes Blue
TTITLE5=Faron Young - Your Cheatin' Heart
TTITLE6=Billie Jo Spears - Blanket On The Ground
TTITLE7=Tennessee Ernie Ford - Sixteen Tons
TTITLE8=Sonny James - Only The Lonely (Know The Way I Feel)
TTITLE9=The Nitty Gritty Dirt Band - Jambalaya (On The Bayou)
TTITLE10=Tanya Tucker - Delta Dawn
TTITLE11=Suzy Bogguss - Take It To The Limit
TTITLE12=Wanda Jackson - Fancy Satin Pillows
TTITLE13=Deana Carter - Brand New Key
TTITLE14=Chris Ledoux - Under This Old Hat
TTITLE15=Eddy Raven - In A Letter To You
TTITLE16=George Jones - Take These Chains From My Heart
TTITLE17=Juice Newton - Angel Of The Morning
TTITLE18=Joe South - Games People Play
TTITLE19=Sonny James - Young Love
TTITLE20=Tex Ritter - High Noon (Do Not Forsake Me)
TTITLE21=Dr. Hook - If Not You
TTITLE22=Dottie West - Hey, Mr. Dream Maker
TTITLE23=Jean Shepard - Sing Me An Old Fashioned Song
EXTD=YEAR: 2013
EXTT0=
EXTT1=
EXTT2=
EXTT3=
EXTT4=
EXTT5=
EXTT6=
EXTT7=
EXTT8=
EXTT9=
EXTT10=
EXTT11=
EXTT12=
EXTT13=
EXTT14=
EXTT15=
EXTT16=
EXTT17=
EXTT18=
EXTT19=
EXTT20=
EXTT21=
EXTT22=
EXTT23=
PLAYORDER=
